<?xml version="1.0" encoding="utf-8"?>
<!-- Generator: Adobe Illustrator 21.0.0, SVG Export Plug-In . SVG Version: 6.00 Build 0)  -->
<svg version="1.1" id="Layer_1" xmlns="http://www.w3.org/2000/svg" xmlns:xlink="http://www.w3.org/1999/xlink" x="0px" y="0px"
	 viewBox="0 0 550 550" enable-background="new 0 0 550 550" xml:space="preserve">
<g>
	<path fill="#D1D3D3" d="M499,519.3c-9.3,1.5-30.7-0.9-30.9-9.6c-0.1-3.3,1.6-6.7,4-9.7c2,3.9,19.2,10.2,27.1,5
		c8.1-5.4,7.8-44.4,5-62.2c-2.8-17.7-7.4-36.6-5-69.7c0.1-0.8,0.1-1.7,0.2-2.5c1.7,2.5,3.3,5.4,4.8,8.7l0.5,0
		c1.1,17,1.3,40,12.6,56.7c-3.7,30.2,1.2,62-1.7,64.7C510.1,505.8,506.5,518.1,499,519.3z"/>
	<path fill="#565859" stroke="#565859" stroke-width="3" stroke-miterlimit="10" d="M514.1,263c-4.6-24.8-12.9-39.3-21.5-53.4
		c-6.1-10-12.3-19.8-17.3-33.1l-0.6,0c-0.6-2-9.6-34.4-10.5-56.8c-0.9-23.1,1.8-54.1,1.8-54.1s-3.9-9.9-10.2-13.2
		c-13.1,145.7,36.9,157.4,46.9,269.5v0c0,19.6-2.6,37.1-3.4,48.7c1.7,2.5,3.3,5.4,4.8,8.7l0.5,0c0,0,0-0.1,0-0.1
		C503.5,362.2,521.9,305.4,514.1,263z"/>
	<path fill="#BCBEC0" d="M325.6,167.1c0,0,14-2,28.7-4.5c22.9,6.9,49.7,3.7,72.8-10.3h0c7.6,14,9.7,29.7,8.3,37.5
		c-1.1-2-3.6-4.5-6.5-5.8c-5-2.4-11-4.3-12.1-5c-1.8-1.2,3,5.8,1.8,11.2c-1.8-3.3-15.9-8.2-29.4-9.7
		C375.8,178.9,349.9,184.8,325.6,167.1z"/>
	<path fill="#808285" d="M446.9,45.4c0,0,0,6.7-1.2,13.4c-7.7-12.9-25.6-17.4-25.6-17.4h0c0.1-3.3-0.2-8.1-1.5-12.5
		C432.5,30.1,446.9,45.4,446.9,45.4z"/>
	<path fill="#808285" d="M417.6,38.2c0,0-21.7-5.6-49.9,0.3c-41.2,8.5-57.5,37.4-57.5,37.4c-5.9,0.8-12.8,3-12.8,3
		c18.3-36.6,60.7-45,60.7-45c-0.3-2.7-4.2-4.8-4.2-4.8s18.3-5.4,39.6-0.6c0.6-3.3-4.8-7.2-4.8-7.2s19.9-1.8,24,4.2
		C415.3,29.1,416.7,33.9,417.6,38.2z"/>
	<path fill="#F1F2F1" d="M427.2,152.3c-23.1,14-49.9,17.2-72.8,10.3c12-2,24.5-4.1,30.2-1.9c0-8.1-4.3-14.8-4.3-14.8
		s14.5,1.1,18.5,7.7c12.1-14.9,10.9-30.3,10.9-30.3C417.4,132.4,423.1,141.3,427.2,152.3L427.2,152.3z"/>
	<path fill="#F1F2F1" d="M333.4,351.5c36-37.5,71.2,11.4,76.3,22.2c5.1,10.8,12.6,34.2,9.6,42.6c-3,8.4-24.6,69.9-31.8,75
		c-12.2,8.5-30.6,0-28.8-8.3c2.4-2.4,11.7-5.1,11.7-5.1s22.8-30.6,14.1-59.8c-6.9-21.3-21.3-27-39.6-48.6
		C339.9,363.7,336.2,357.5,333.4,351.5z"/>
	<path fill="#F1F2F1" d="M367.5,290.7c-10.2-3.1-24.7,8.6-40.2,21.8c4.1-11,14.5-28.8,39.7-28.2c34.2,0.8,57.3,82.7,59.8,92.2
		c-4.2-4.1-8.5-8.5-12.8-13.5c-25.8-29.9-29.5-71.6-45.7-72.2C368.1,290.7,367.8,290.7,367.5,290.7z"/>
	<path fill="#BCBEC0" d="M409.7,373.7c-5.1-10.8-40.3-59.7-76.3-22.2c-6.5-13.9-8-26.4-8.3-29.8c11.3-11.9,25.9-31,42.5-31
		c0.3,0,0.6,0,0.9,0c16.2,0.6,19.9,42.3,45.7,72.2c4.3,5,8.6,9.4,12.8,13.5c0.2,0.6,0.2,0.9,0.2,0.9s-3.3,15,3,37.8
		c-6.3,10.2-16.8,31.2-20.4,42c-3.6,10.8-10.8,28.8-10.8,35.4c-4.5,5.4-14.7,12.6-18.6,13.2c-3.9,0.6-23.1,0-25.8-6.6
		c-2.7-6.6,1.8-13.8,4.2-16.2c-1.8,8.3,16.7,16.8,28.8,8.3c7.3-5.1,28.8-66.6,31.8-75C422.3,408,414.8,384.5,409.7,373.7z"/>
	<path fill="#D1D3D3" d="M367.5,290.7c-16.6,0-31.2,19.2-42.5,31c0-0.6-0.1-0.9-0.1-0.9s0.5-3.5,2.3-8.4
		C342.8,299.3,357.3,287.6,367.5,290.7z"/>
	<path fill="#D1D3D3" d="M312.3,331c-1.6,0.5-3.1-0.7-4.4-2.4c6.5-5,13.1-10.7,19.5-16.1c-1.8,4.9-2.3,8.4-2.3,8.4s0,0.3,0.1,0.9
		C320.1,327,315.8,330.8,312.3,331z"/>
	<path fill="#565859" d="M303.5,134.3c0,0,22.8,18.6,52.1,27.6c-14.5,2.5-28.3,5.7-28.3,5.7c-8.3-6.2-14.7-13.8-19.2-22.9
		C306.2,141.1,304.7,137.3,303.5,134.3L303.5,134.3z"/>
	<path fill="#565859" d="M367.1,198.2c-52.3,0-63.7-63.9-63.7-63.9l0.1-0.1c4.7,11.3,11.3,21.6,20,29.2
		c24.9,21.8,51.4,14.4,65.2,16.3c12.4,1.6,25.2,6.6,29.1,10.5c0.5,0.5,1.2,0.1,1.2-0.7c0.1-6.3-3.7-13.4-2-12
		c1.2,0.9,7.1,2.7,12.2,5.6c0.1,0.1,0.2,0.2,0.3,0.3c3.1,5.8-0.4,14.5-1.6,17.3c-0.2,0.5-0.7,0.6-1,0.3
		C424.2,199,412,198.2,367.1,198.2z"/>
	<path fill="#F1F2F1" d="M303,332.2c-14.1,10-27.5,15.7-37.9,7.2c0-0.1,0-0.3,0-0.4c3.5-4.3,52.3-63.7,101.9-63.7
		c36.6,0,37.8,27.9,57.7,48.6c29.5,30.8,57.2,20.6,74.7,46.7c-0.1,0.9-0.1,1.7-0.2,2.5c-2.4,33,2.2,51.9,5,69.7
		c2.8,17.7,3.1,56.8-5,62.2c-7.9,5.3-25.1-1-27.1-5c4-4.8,9.9-8.3,13.6-8.2c0,0,3.4-41.3-8.1-64.4c-9.6-19.3-29.5-30.4-50.7-50.9
		c-2.6-9.5-25.6-91.3-59.8-92.2c-25.2-0.6-35.7,17.2-39.7,28.2c-6.4,5.4-13,11.1-19.5,16.1c-2.1-2.7-3.7-6.6-3.7-6.6
		S303,326.9,303,332.2z"/>
	<path fill="#58595B" d="M265.2,338.9c0,0.1,0,0.3,0,0.4c-0.1,0-0.1-0.1-0.2-0.2C265,339.2,265,339.1,265.2,338.9z"/>
	<path fill="#BCBEC0" d="M304.4,340c0,0-11.7,10.2-17.4,12.2c-3.3-1.6-10.6-2.9-9.5,8.1c-1.9,2.3-8.6,6.8-13.5,6.8
		c0,0.1,0,0.1-0.1,0.2l-0.4-0.1c1.4-5.7,1.6-18.3,1.5-27.8c10.4,8.5,23.8,2.8,37.9-7.2C303.1,334.9,303.4,337.7,304.4,340z"/>
	<path fill="#58595B" d="M258,389.9c1.8-15.1,4.1-33.6,7-55.6h0.1c0,0,0,3,0.1,4.7c-0.1,0.2-0.2,0.2-0.2,0.2
		c0.1,0.1,0.1,0.1,0.2,0.1c0.1,9.4-0.2,22.1-1.5,27.8l0.4,0.1c-2.3,9.1-3.4,20-4,31.8l-0.4,0C259.2,395.8,258.6,392.8,258,389.9z"/>
	<path fill="#D1D3D3" d="M258,389.8c0.7,2.9,1.2,5.9,1.6,9.2l0.4,0c-1,20.1-0.5,43.1-1.3,65.3c-4.9,7.5-12.2,39.6-12.2,62.2
		c-2.7,3.6-21.4,15.3-25.7,14.9c-4.3-0.5-21.8-6.5-24.3-9.5c-2.4-2.9-2-11.5-1-15.4c2.8,2,21.6,14.5,32.2,3.8
		c11.4-11.6,20.4-40.3,22.2-55.9C251.3,452.7,252.5,435.8,258,389.8z"/>
	<path fill="#DDB6B6" d="M215.2,22.1c3.8-2,6.9-2.7,8.3-0.9c1.9,3.9-6.2,25.8-8.4,34.9c-1.4,5.8-2.1,9.1-2.3,16.1h0
		C185.2,52.3,215.2,22.1,215.2,22.1z"/>
	<path fill="#C29393" d="M213.8,89.4c-27.5-21.8-25.4-39.6-24-44.2c1.1-3.5,15.5-17.8,25.4-23.1c0,0-30,30.2-2.4,50.2h0
		c-0.3,5,0.1,10.8,0.5,13.9c0.2,1.8,0.4,2.9,0.5,3.3C213.9,89.5,213.8,89.4,213.8,89.4z"/>
	<path fill="#BCBEC0" d="M179,341.4c-0.2,2.9-5.7,74-4,108c0,0-8,40.1-9.5,63.5c-2.4,2.1-13.9,9.6-21.6,10.8
		c-7.8,1.2-25.6-6.9-27.5-9.9c-1.9-2.9-2-9.3-0.1-12.4c3,1.1,26.6,9.4,37.1,2.7c11.3-7.1,14.4-137.1,25.2-162.8L179,341.4z"/>
	<path fill="#614141" d="M136,129c-3,7.8-8.8,17.4-19.9,24.3C117,140.4,131.1,133,136,129z"/>
	<path fill="#473030" d="M105.8,158c1.3-8.5,3.9-15.8,10.4-20.4c0.6-0.3,1.3-0.5,1.9-0.8c9.5-4.4,17.7-10.9,19.9-16
		c0.6-1.5,1.1-3.3,1.3-5.2c-0.1,1.4-0.7,6.7-3.2,13.3c-4.9,4-19,11.4-19.9,24.3c-2.9,1.8-6.1,3.4-9.8,4.8L105.8,158z"/>
	<path fill="#DDB6B6" d="M100.4,141.6c-4.6,0.1-8.3-0.4-11.4-1.3l-0.9,0.1c0,0-0.7,0.7-1.8,2l0.1,0.1c3.7,1.9,19.9,1.8,18.2,6.4
		c-0.5,1.5-1.8,4.6-3.3,8.7c-2.5,6.8-5.8,16-7.3,24c-1.1,5.8-5.7,8.1-11.3,7.1c-0.7-0.1-3.6-11.9,3.9-28.8c-8.6,9.7-7.5,24.6-7.3,28
		c-5.2,2.9-11.4-2.8-11.7-3c1.8,6.9,6.2,12.8,13.7,13.1c12.6,0.6,20.9-5.9,22.7-22.2c0.7-6.1,1-12.2,1.9-17.8
		c1.3-8.5,3.9-15.8,10.4-20.4C110.9,139.9,105.3,141.4,100.4,141.6z"/>
	<path fill="#808285" d="M173.6,47.9c-35-16-75.8-13.3-75.8-13.3c21.9-6.9,56.4-8.4,78.3,8.1c0,0,28.4-22.7,36-24.5
		c4-1,7-1.2,9.2-0.6c0,0-10.3,2.5-23.9,13.5C194,34,185,42.4,180.3,46.8C178.5,48.5,175.9,48.9,173.6,47.9z"/>
	<path fill="#F1F2F1" d="M105.8,158l0.6,0.1c3.6-1.4,6.9-3,9.8-4.8c11.1-6.9,16.9-16.5,19.9-24.3c2.6-6.6,3.3-12,3.3-13.3
		c0,0,0,0,0,0c0-1.5,0.3-3,0.3-4.6c-14,31.3-57.5,24-64.3,22.7c-0.6-0.1-0.9-0.2-0.9-0.2c-7.7,1.6-10.9-4.5-10.9-4.5
		c0.4,2.7,1.1,4.9,2.4,6c4.7,4,6-1.6,9.4-1c0.2,0,0.3,0.1,0.5,0.1c-0.3,0.9-0.6,3.1-0.7,5.8c-0.3,5.1-0.2,12,0.7,14.9l0.2,0
		c-4,5.4-7.8,11.3-8.8,15.7c-1,4.3-0.9,9.6,0.3,14.3c1.8,6.9,6.2,12.8,13.7,13.1c12.6,0.6,20.9-5.9,22.7-22.2
		C104.5,169.7,104.9,163.6,105.8,158z M62.5,108.3c-0.6,2.2-0.4,4.7,0.3,7.2c0.1,0.4,0.3,0.8,0.4,1.2c2.2,6.1,7.4,11.9,11.6,12.2
		c6.6,0.6,19.5-8.1,21.3-12.9c0.5-1.5,0.6-3.8-0.3-6.1c-0.5-2.2-1.4-7.5,0.1-12.3c3.1-10,14-33.7,19.8-40.8
		c7.8-9.5,19.1-9.3,21.3-2.3c2.3,7.1,0,18.2,6.5,25.9c8.5,10.2,39.4,15.8,47.3,26c7.8,10.1,10.4,27.3,3.7,38.8
		c-5.6,9.8-36.6,38-47.7,78.8c-9.2,33.7,9.5,80,48.2,103c42.1,24.9,57.2,37.9,62.8,62.6c-5.5,46-6.7,62.9-8,74.6
		c-1.8,15.5-10.8,44.3-22.2,55.9c-10.5,10.7-29.4-1.8-32.2-3.8c0-0.1,0.1-0.2,0.1-0.4c1.1-3.8,10.3-8,18.5-11.3
		c7-3.9,6-37.2,4.5-59.5c-1.5-22.2-10.6-70.8-20.7-82.4c-7.8-9-18.9-21.6-18.9-21.6s0,0,0,0.1l-0.4,0
		c-10.8,25.7-13.9,155.6-25.2,162.8c-10.5,6.7-34.1-1.6-37.1-2.7c0-0.1,0.1-0.2,0.1-0.2c1.9-3,8-8.1,15.6-9.9
		c4.6-3.9,8.6-112-8.3-144.6c-16.9-32.6-33.2-43.4-36.5-48.6c-3.3-5.3,1.4-25.7,1.4-25.7s-5.9,9.3-9.5,14.9
		c-3.3-3.5-5.2-12.8-6.3-20.3c-1.2-7.5,0-18.6-0.5-29.7c-0.4-11.1-8.9-39-12.2-41.9c-2.1-1-4.2,0.5-4.2,0.5s-13.2-19.1-13.2-23.4
		c0-4.4,6-12,6-12c-2.5-1-7.2,4.4-7.2,4.4s-8.9-14.1-8.4-19.4c1-3,3.6-6,3.6-6c-1.7-2.1-6-2.4-6-2.4c-1.8-2.3-1.6-10.1-1.2-10.8
		c0.5-0.7,4.8-5.4,4.8-5.4c-3.8-3-1.2-16-1.2-16l7.1-3.3c-0.5-2.6-0.3-7.1-0.3-7.1s4.3-2,6.2-3.6c-0.1-3.4,1.9-7.9,2.5-9.2
		c14.7-4,25.9-22.6,30.1-26.2c6.3-5.5,13.2-5.1,14,0.5c0.7,5.6-2,19.8-6.5,28.2c-3,5.7-12,14.5-17.5,19.7c-2.5,0.5-4.5,1.5-5.3,3.2
		C62.9,107.3,62.7,107.8,62.5,108.3z"/>
	<path fill="#D1D3D3" d="M88.9,140.3l29-3.6l0.1,0.2c-0.6,0.3-1.3,0.6-1.9,0.8c-5.3,2.2-10.8,3.8-15.8,3.9
		C95.8,141.7,92.1,141.2,88.9,140.3z"/>
	<path fill="#EBD1D1" d="M86.3,142.5l-0.1-0.1c-0.7,0.8-1.7,1.9-2.7,3.1c-2.2,2.5-4.9,5.8-7.5,9.3c-4,5.4-7.8,11.3-8.8,15.7
		c-1,4.3-0.9,9.6,0.3,14.3c0.3,0.3,6.5,5.9,11.7,3c-0.2-3.5-1.3-18.3,7.3-28c-7.5,16.9-4.7,28.6-3.9,28.8c5.6,1,10.2-1.3,11.3-7.1
		c1.6-7.9,4.8-17.2,7.3-24c1.5-4.1,2.8-7.2,3.3-8.7C106.2,144.3,90,144.4,86.3,142.5z"/>
	<path fill="#614141" d="M83.5,145.5c-2.2,2.5-4.9,5.8-7.5,9.3l-0.2,0c-0.9-2.9-1-9.8-0.7-14.9C76.1,140.2,83,142.4,83.5,145.5z"/>
	<path fill="#473030" d="M88.1,140.4c0,0-0.7,0.7-1.8,2c-0.7,0.8-1.7,1.9-2.7,3.1c-0.5-3.1-7.4-5.3-8.5-5.6c0.2-2.7,0.4-4.9,0.7-5.8
		c2.6,0.8,6.4,4.3,13.2,6.2L88.1,140.4z"/>
	<path fill="#D1D3D3" d="M75.3,133.7c6.8,1.3,50.3,8.6,64.3-22.7c0,1.6-0.3,3.1-0.3,4.6c0,0,0,0,0,0c0,1.9-0.7,3.7-1.4,5.2
		c-2.1,5-10.4,11.6-19.9,16l-0.1-0.2l-29,3.6c-6.8-1.9-10.6-5.4-13.2-6.2c-0.2-0.1-0.3-0.1-0.5-0.1L75.3,133.7z"/>
	<path fill="#D1D3D3" d="M63.5,129c0,0,3.3,6.2,10.9,4.5c0,0,0.3,0.1,0.9,0.2l0,0.2c-3.4-0.5-4.7,5-9.4,1
		C64.6,133.9,63.9,131.7,63.5,129z"/>
	<path fill="#424142" d="M95.4,108.9c-6.2-4.2-25.4-1.7-31.4-0.8c0-0.3,0.1-0.5,0.1-0.5s1.8-1.6,4.4-4.1c6.1-1.3,15.4-0.1,20.5,0.8
		C92.3,104.9,94.3,106.7,95.4,108.9z"/>
	<path fill="#424142" d="M64,108.1c-0.7,0.1-1.2,0.2-1.5,0.2c0.2-0.5,0.4-1.1,0.6-1.6c0.8-1.6,2.8-2.6,5.3-3.2
		c-2.6,2.5-4.4,4.1-4.4,4.1S64,107.8,64,108.1z"/>
	<path d="M96.2,111c0,0-0.1-0.4-0.3-1c0.8,2.2,0.8,4.6,0.3,6.1c-1.8,4.8-14.7,13.5-21.3,12.9c-4.2-0.4-9.4-6.1-11.6-12.2
		c0-0.4,0-0.7,0.1-1.1C68.1,117.1,86.8,121.6,96.2,111z"/>
	<path fill="#262526" d="M62.8,115.5c0.1,0,0.3,0.1,0.5,0.1c0,0.4,0,0.7-0.1,1.1C63.1,116.3,62.9,115.9,62.8,115.5z"/>
	<path fill="#262526" stroke="#262526" stroke-width="3" stroke-miterlimit="10" d="M95.9,109c-0.1-0.4-0.3-2.2-0.5-2.2h0
		c-6.2-3-25.4-0.7-31.4,0.3c-0.7,0.1-1.2,0.7-1.5,0.8c-0.6,2.2-0.4,5,0.3,7.5c0.1,0,0.3,0.2,0.5,0.3c4.8,1.4,23.5,5.5,32.9-5.1
		C96.2,110.4,96.1,109.6,95.9,109z"/>
	<path fill="#6A6C6E" d="M78.5,55.2c-4.1,3.6-15.4,22.3-30.1,26.2c0.1-0.2,0.2-0.4,0.2-0.4s7.5-5.3,8.8-8.7c1.3-3.4,2-10.1,4.5-14.9
		c2.5-4.8,11.7-12.2,11.7-12.2S78,17.1,84.4,13c6.4-4.2,8.4,19.5,13.5,21.6c3.6-1.4,51.1-7.6,77,11.7c2,1.5,2.3,2.2,4,0.6
		c4.6-4.4,13.5-12.8,17-15.7c13.3-11,23.5-13.5,23.5-13.5c1.9,0.5,3.2,1.7,4.1,3.6c-1.4-1.8-4.5-1.2-8.3,0.8
		c-9.8,5.3-24.3,19.7-25.4,23.2c-1.5,4.6-3.5,22.4,24,44.2c0,0,0,0,0,0c17.7,21.4,10.6,50.2,10.6,50.2s22.8,6.1,44.6,7.7
		c10.1,0.7,24.4-1.4,36.9-3.8c0,0,10.6,46.4,61.7,46.4c51,0,59.5,8.2,59.5,8.2s5.7-9.3,1.8-14.9c2.9,1.4,5.4,3,6.5,5
		c1.4-7.8-0.7-22.6-8.3-39.2c-4.1-8.9-9.8-18.3-17.5-27.5c0,0,1.2,17-10.9,31.9c-4-6.5-18.5-7.9-18.5-7.9s4.3,6.3,4.3,14.4
		c-5.8-2.2-18.2,0-30.2,2c-29.7-9-52.8-27.6-52.8-27.6h0c-4.7-15-5.3-30-2.4-41c3.6-7.2,18.6-16.4,18.6-16.4
		c-1.3-1.1-4.3-1.3-7.6-0.9c0,0,16.2-31.9,57.4-40.4c28.2-5.9,50,2.6,50,2.6c1.1,5.5,1,10.5,1,10.5s1.4-4.4,1.5-8.4h0
		c0,0,17.8,4.1,25.6,15.9c-0.9,4.5-2.5,9.1-5.3,12c11.1-5.7,16.4-15.7,16.4-15.7c-13.1,145.7,34.6,157.3,47.6,269.4v0
		c-3,19.6-3.3,37.1-4.2,48.7c-17.5-26.1-45.6-16-75-46.7c-19.9-20.7-21.2-48.6-57.9-48.6c-49.6,0-98.5,59.5-102,63.8
		c0-1.8-0.1-4.7-0.1-4.7H265c-2.9,22-5.2,40.5-7,55.6c-5.6-24.7-20.7-37.7-62.8-62.6c-38.7-22.9-57.4-69.3-48.2-103
		c11.1-40.8,42.1-69,47.7-78.8c6.6-11.6,4.1-28.8-3.7-38.8c-7.9-10.2-38.8-15.8-47.3-26c-6.4-7.7-4.2-18.9-6.5-25.9
		c-2.3-7.1-13.5-7.2-21.3,2.3C110,64,99.2,87.8,96,97.7c-1.5,4.8-0.6,10.3-0.1,12.5c-0.1-0.4-0.3-0.9-0.5-0.9h0
		c-1.1,0-3.2-4.2-6.5-4.7c-5.1-0.8-14.4-2.2-20.5-0.9C74,98.6,82.9,89.7,86,84c4.5-8.4,7.2-22.7,6.5-28.3
		C91.7,50.2,84.8,49.7,78.5,55.2z"/>
	
		<path fill="none" stroke="#000000" stroke-width="1.8018" stroke-linecap="round" stroke-linejoin="round" stroke-miterlimit="10" d="
		M325.1,321.7c0.3,3.3,1.8,15.9,8.3,29.8c2.8,6,6.5,12.2,11.4,18c18.3,21.6,32.7,27.3,39.6,48.6c8.7,29.1-14.1,59.8-14.1,59.8
		s-9.3,2.7-11.7,5.1c-2.4,2.4-6.9,9.6-4.2,16.2c2.7,6.6,21.9,7.2,25.8,6.6c3.9-0.6,14.1-7.8,18.6-13.2c0-6.6,7.2-24.6,10.8-35.4
		c3.6-10.8,14.1-31.8,20.4-42c-6.3-22.8-3-37.8-3-37.8s-0.1-0.3-0.2-0.9"/>
	
		<path fill="none" stroke="#000000" stroke-width="1.8018" stroke-linecap="round" stroke-linejoin="round" stroke-miterlimit="10" d="
		M174.9,42.7c-21.5-16.5-55.5-15-77-8.1C92.7,32.5,90.7,8.8,84.4,13C78,17.1,73.6,45.4,73.6,45.4s-9.3,7.4-11.7,12.2
		c-2.5,4.8-3.3,11.4-4.5,14.9c-1.3,3.4-8.8,8.7-8.8,8.7s-0.1,0.1-0.2,0.4c-0.6,1.3-2.5,5.8-2.5,9.2c-1.9,1.6-6.2,3.6-6.2,3.6
		s-0.1,4.5,0.3,7.1l-7.1,3.3c0,0-2.6,13,1.2,16c0,0-4.4,4.7-4.8,5.4c-0.5,0.8-0.6,8.6,1.2,10.8c0,0,4.4,0.3,6,2.4c0,0-2.6,3-3.6,6
		c-0.5,5.3,8.4,19.4,8.4,19.4s4.7-5.4,7.2-4.4c0,0-6,7.7-6,12c0,4.4,13.2,23.4,13.2,23.4s2.1-1.5,4.2-0.5
		c3.3,2.9,11.8,30.8,12.2,41.9c0.4,11.1-0.7,22.2,0.5,29.7c1.2,7.5,3.1,16.8,6.3,20.3c3.6-5.5,9.5-14.9,9.5-14.9s-4.6,20.4-1.4,25.7
		c3.2,5.3,19.6,16.1,36.5,48.6c16.9,32.6,12.9,140.7,8.3,144.6c-7.6,1.8-13.6,6.9-15.6,9.9c0,0.1-0.1,0.2-0.1,0.2
		c-1.8,3.1-1.8,9.5,0.1,12.4c1.9,3,19.8,11.1,27.5,9.9c7.8-1.2,19.3-8.7,21.6-10.8c1.5-23.4,9.5-63.5,9.5-63.5
		c-1.7-34,3.8-105.1,4-108c0-0.1,0-0.1,0-0.1s11.1,12.6,18.9,21.6c10.1,11.7,19.3,60.2,20.7,82.4c1.5,22.2,2.5,55.6-4.5,59.5
		c-8.2,3.3-17.4,7.5-18.5,11.3c0,0.1-0.1,0.2-0.1,0.4c-1,3.9-1.4,12.5,1,15.4c2.5,3,20,9,24.3,9.5c4.3,0.5,23-11.3,25.7-14.9
		c0-22.5,7.3-54.7,12.2-62.2c0.8-22.2,0.3-45.2,1.3-65.3c0.6-11.8,1.8-22.7,4-31.8c0-0.1,0-0.1,0.1-0.2c4.9,0,11.6-4.5,13.5-6.8
		c-1.1-11,6.2-9.8,9.5-8.1c5.7-2,17.4-12.2,17.4-12.2c-1-2.3-1.4-5.1-1.4-7.8c0-5.3,1.1-10.2,1.1-10.2s1.5,3.9,3.7,6.6
		c1.3,1.6,2.9,2.8,4.4,2.4c3.5-0.2,7.8-4,12.8-9.2c11.3-11.9,25.9-31,42.5-31c0.3,0,0.6,0,0.9,0c16.2,0.6,19.9,42.3,45.7,72.2
		c4.3,5,8.6,9.4,12.8,13.5c21.3,20.5,41.1,31.6,50.7,50.9c11.5,23.1,8.1,64.4,8.1,64.4c-3.6-0.1-9.6,3.4-13.6,8.2
		c-2.5,2.9-4.1,6.3-4,9.7c0.3,8.7,21.6,11.1,30.9,9.6c7.4-1.2,11.1-13.5,16.5-18.6c2.9-2.7-2-34.5,1.7-64.7
		c-11.3-16.6-11.5-39.7-12.6-56.7c0,0,0-0.1,0-0.1c-1.1-17,17.3-73.7,9.5-116.2c-4.6-24.8-12.9-39.3-21.5-53.4
		c-6.1-10-12.3-19.8-17.3-33.1"/>
	
		<path fill="none" stroke="#000000" stroke-width="1.8018" stroke-linecap="round" stroke-linejoin="round" stroke-miterlimit="10" d="
		M306,143.5c-12.5,2.4-26.9,4.5-36.9,3.8c-21.8-1.5-44.6-7.7-44.6-7.7s7.2-28.8-10.6-50.2c0,0,0,0,0,0"/>
	
		<path fill="none" stroke="#000000" stroke-width="1.8018" stroke-linecap="round" stroke-linejoin="round" stroke-miterlimit="10" d="
		M139.2,115.7c0-0.2,0-0.3,0-0.3"/>
	
		<path fill="none" stroke="#000000" stroke-width="1.8018" stroke-linecap="round" stroke-linejoin="round" stroke-miterlimit="10" d="
		M105.8,158l0.6,0.1c3.6-1.4,6.9-3,9.8-4.8c11.1-6.9,16.9-16.5,19.9-24.3c2.6-6.6,3.1-12,3.2-13.3"/>
	
		<path fill="none" stroke="#000000" stroke-width="1.8018" stroke-linecap="round" stroke-linejoin="round" stroke-miterlimit="10" d="
		M75.8,134.1c-0.3,0.9-0.6,3.1-0.7,5.8c-0.3,5.1-0.2,12,0.7,14.9l0.2,0"/>
	
		<path fill="none" stroke="#000000" stroke-width="1.8018" stroke-linecap="round" stroke-linejoin="round" stroke-miterlimit="10" d="
		M88.1,140.4c0,0-0.7,0.7-1.8,2c-0.7,0.8-1.7,1.9-2.7,3.1c-2.2,2.5-4.9,5.8-7.5,9.3c-4,5.4-7.8,11.3-8.8,15.7
		c-1,4.3-0.9,9.6,0.3,14.3c1.8,6.9,6.2,12.8,13.7,13.1c12.6,0.6,20.9-5.9,22.7-22.2c0.7-6.1,1-12.2,1.9-17.8
		c1.3-8.5,3.9-15.8,10.4-20.4"/>
	
		<path fill="none" stroke="#000000" stroke-width="1.8018" stroke-linecap="round" stroke-linejoin="round" stroke-miterlimit="10" d="
		M213.9,89.6c0,0,0-0.1,0-0.2c-0.1-0.4-0.3-1.6-0.5-3.4c-0.4-3.1-0.8-8-0.5-14c0.2-4.8,0.9-10.3,2.3-16.1
		c2.3-9.2,10.3-30.9,8.4-34.8c-0.9-1.9-2.2-3.1-4.1-3.6c-2.2-0.6-5.1-0.4-9.1,0.6c-7.5,1.8-35.4,24.5-35.4,24.5"/>
	
		<path fill="none" stroke="#000000" stroke-width="0.9009" stroke-linecap="round" stroke-linejoin="round" stroke-miterlimit="10" d="
		M223.5,21.2c-1.4-1.8-4.5-1.2-8.3,0.8c-9.8,5.3-24.3,19.7-25.4,23.2c-1.5,4.6-3.5,22.4,24,44.2"/>
	
		<path fill="none" stroke="#000000" stroke-width="1.8018" stroke-linecap="round" stroke-linejoin="round" stroke-miterlimit="10" d="
		M347.8,92c0,0,39.9,3.3,61.9,29.4c7.7,9.1,13.4,18.6,17.5,27.5c7.6,16.6,9.7,31.4,8.3,39.2c-1.1-2-3.6-3.6-6.5-5
		c-5-2.4-11-3.9-12.1-4.6c-1.8-1.2,3,6,1.8,11.4c-1.8-3.3-15.9-8.1-29.4-9.6c-13.5-1.5-39.3,4.5-63.7-13.2
		c-8.5-6.2-14.9-14.5-19.5-23.7c-1.8-3.6-3.3-7.3-4.6-11.1c-4.7-14.2-5.3-29-2.4-40c3.6-7.2,18.6-15.9,18.6-15.9
		c-1.3-1.1-4.3-1.1-7.6-0.6c-5.9,0.8-12.8,3-12.8,3c18.3-36.6,60.7-45,60.7-45c-0.3-2.7-4.2-4.8-4.2-4.8s18.3-5.4,39.6-0.6
		c0.6-3.3-4.8-7.2-4.8-7.2s19.9-1.8,24,4.2c2.6,3.8,4,8.6,4.8,12.8c1.1,5.5,1,10,1,10s1.4-3.5,1.5-8.8c0.1-3.1-0.2-6.9-1.5-11
		c14,1.2,28.3,15.6,28.3,15.6s0,5.7-1.2,11.8c-0.9,4.5-2.5,9.3-5.3,12.2c11.1-5.7,15.6-15.6,15.6-15.6c6.3,3.3,10.2,13.2,10.2,13.2
		s-2.7,30.9-1.8,54.1c0.8,22.4,9.9,54.8,10.5,56.8c0,0.1,0,0.1,0,0.1"/>
	
		<path fill="none" stroke="#000000" stroke-width="1.8018" stroke-linecap="round" stroke-linejoin="round" stroke-miterlimit="10" d="
		M265,327.8c0,0,0.1,2.5,0.1,6.3c0,1.5,0,3.1,0.1,4.9c0,0.1,0,0.3,0,0.4c0.1,9.4-0.2,22.1-1.5,27.8"/>
	<path fill="none" stroke="#000000" stroke-width="3" stroke-linecap="round" stroke-linejoin="round" stroke-miterlimit="10" d="
		M63.2,116.7c-0.2,4-0.3,8.6,0.3,12.3c0.4,2.7,1.1,4.9,2.4,6c4.7,4,6-1.6,9.4-1c0.2,0,0.3,0.1,0.5,0.1c2.6,0.8,6.4,4.3,13.2,6.2
		c3.1,0.9,6.9,1.5,11.4,1.3c5-0.2,10.5-1.7,15.8-3.9c0.6-0.3,1.3-0.5,1.9-0.8c9.5-4.4,18.5-10.9,20.7-16c0.6-1.5,2.1-3.3,2.1-5.2
		c0,0,0,0,0,0c0-1.5-0.5-3-0.5-4.6c0.2-7.6-1.8-15.7-2.7-16.9c-1.4-1.8-5.6-0.9-5.6-0.9"/>
	
		<path fill="none" stroke="#000000" stroke-width="1.8018" stroke-linecap="round" stroke-linejoin="round" stroke-miterlimit="10" d="
		M48.3,81.5c0,0,0.1,0,0.1,0c14.7-4,25.9-22.6,30.1-26.2c6.3-5.5,13.2-5.1,14,0.5c0.7,5.6-2,19.8-6.5,28.2c-3,5.7-12,14.5-17.5,19.7
		"/>
	
		<path fill="none" stroke="#000000" stroke-width="1.8018" stroke-linecap="round" stroke-linejoin="round" stroke-miterlimit="10" d="
		M95.4,108.9c-1.1-2.1-3.2-4-6.5-4.5c-5.1-0.8-14.4-2.1-20.5-0.8c-2.5,0.5-4.5,1.5-5.3,3.2c-0.3,0.5-0.5,1-0.6,1.6
		c-0.6,2.2-0.4,4.7,0.3,7.2c0.1,0.4,0.3,0.8,0.4,1.2c2.2,6.1,7.4,11.9,11.6,12.2c6.6,0.6,19.5-8.1,21.3-12.9
		c0.5-1.5,0.6-3.8-0.3-6.1C95.8,109.6,95.6,109.2,95.4,108.9"/>
	<path d="M380.3,481.5c-0.2,0-0.4-0.1-0.6-0.2c-2.7-2.4-9.2-2.5-9.3-2.5c-0.5,0-0.9-0.4-0.9-0.9c0-0.5,0.4-0.9,0.9-0.9
		c0.3,0,7.3,0,10.5,2.9c0.4,0.3,0.4,0.9,0.1,1.3C380.8,481.4,380.5,481.5,380.3,481.5z"/>
	<path d="M180.2,343.8c-0.3,0-0.6-0.1-0.7-0.4c-3.7-5.1-10-8.3-17.3-12c-13.5-6.8-30.3-15.3-43.3-40.9c-0.2-0.4,0-1,0.4-1.2
		c0.4-0.2,1,0,1.2,0.4c12.7,25.1,29.3,33.4,42.5,40.1c7.5,3.8,14,7,17.9,12.5c0.3,0.4,0.2,1-0.2,1.3
		C180.6,343.8,180.4,343.8,180.2,343.8z"/>
	<path d="M81.2,198.5c-0.2,0-0.4-0.1-0.4-0.3c-6.9-24,5.4-38.4,5.5-38.6c0.2-0.2,0.4-0.2,0.6,0c0.2,0.2,0.2,0.4,0,0.6
		c-0.1,0.1-12.1,14.2-5.3,37.7c0.1,0.2-0.1,0.5-0.3,0.6C81.2,198.5,81.2,198.5,81.2,198.5z"/>
	<path d="M99.3,113.2c0,0-1.6-0.8-2-2.3c-0.3-1.5-1.5-3.7-1.7-6.6c-0.1-1.5-0.5-3.1-0.3-4.8c0-0.4-0.1-0.9,0-1.4
		c0.1-0.2,0-0.5,0.1-0.7c0.1-0.2,0.1-0.4,0.1-0.7c0.2-0.9,0.6-1.9,0.9-2.8c1.3-3.8,3-8,4.9-12.5c2-4.5,4.1-9.4,6.7-14.5
		c1.3-2.5,2.6-5.1,4.2-7.7c0.8-1.3,1.6-2.6,2.8-3.9c0.5-0.6,1-1.1,1.6-1.7c0.6-0.6,1.2-1.2,1.9-1.7c2.6-2,5.8-3.6,9.4-4
		c1.8-0.2,3.7-0.1,5.5,0.6c1.8,0.7,3.6,2,4.6,3.8c0.2,0.2,0.3,0.4,0.4,0.7l0.3,0.7l0.1,0.4l0,0.1c0,0,0.1,0.2,0.1,0.2l0,0.1l0.2,0.6
		l0.2,0.6l0.1,0.7c0.1,0.4,0.2,0.9,0.2,1.4c0.3,1.7,0.3,3.4,0.5,5c0.2,3.3,0.4,6.4,1.1,9.4c0.4,1.5,0.8,2.9,1.5,4.1
		c0.3,0.7,0.7,1.2,1.1,1.8c0.2,0.3,0.5,0.5,0.7,0.8l0.3,0.4l0.1,0.1c-0.1-0.1,0,0,0,0l0.1,0.1l0.2,0.2c0.6,0.6,1.2,1,1.7,1.5
		c0.6,0.5,1.2,0.9,1.9,1.3c1.3,0.9,2.6,1.7,4,2.4c5.5,3,11.4,5.3,17.1,7.7c5.7,2.4,11.2,4.8,16.1,8.1c1.2,0.8,2.4,1.7,3.5,2.6
		c1.1,0.9,2.1,2.1,2.9,3.2c0.4,0.6,0.8,1.1,1.1,1.6c0.4,0.6,0.7,1.2,1,1.8c0.6,1.2,1.2,2.3,1.7,3.5c2.1,4.7,2.8,9.3,3,13.4
		c0.1,4.1-0.4,7.6-1.1,10.4c-0.7,2.8-1.6,4.9-2.3,6.3c-0.7,1.4-1.1,2.1-1.1,2.1c0,0.1-0.1,0.1-0.2,0.1c-0.1,0-0.1-0.1-0.1-0.1
		c0,0,0.3-0.7,1-2.1c0.3-0.7,0.6-1.6,1-2.6c0.2-0.5,0.3-1.1,0.5-1.7c0.2-0.6,0.4-1.3,0.5-2c0.6-2.8,1-6.3,0.8-10.2
		c-0.3-4-1.2-8.4-3.2-12.9c-1-2.2-2.3-4.5-3.9-6.6c-0.8-1.1-1.7-2-2.7-2.9c-1-0.9-2.2-1.7-3.3-2.4c-4.8-3-10.3-5.3-15.9-7.7
		c-5.7-2.4-11.6-4.7-17.3-7.7c-1.4-0.8-2.8-1.6-4.2-2.5c-1.4-0.9-2.7-1.9-3.9-3c-0.3-0.3-0.6-0.6-0.9-0.9c-0.3-0.3-0.6-0.6-0.8-0.9
		c-0.5-0.7-1-1.3-1.3-2.1c-0.8-1.5-1.3-3-1.7-4.6c-0.8-3.2-0.9-6.5-1.1-9.8c-0.1-1.6-0.2-3.3-0.4-4.8c-0.2-1.6-0.5-3.2-1.3-4.6
		c-0.8-1.4-2.1-2.4-3.5-2.9c-1.5-0.5-3.1-0.7-4.6-0.5c-3.1,0.3-6,1.7-8.4,3.6c-0.6,0.4-1.2,1-1.7,1.5c-0.6,0.5-1.1,1.1-1.6,1.6
		c-1,1.1-1.8,2.4-2.6,3.6c-1.6,2.5-3,5-4.3,7.5c-2.6,5-4.9,9.8-6.9,14.3c-2,4.5-3.8,8.6-5.3,12.3c-0.7,1.9-1.4,3.6-1.6,5.3
		c-0.2,1.7-0.3,3.3-0.2,4.7c0.1,2.9,0.5,5.1,0.7,6.6c0.3,1.5,0.5,2.3,0.5,2.3c0,0.1,1.4,0.1,1.3,0.1C98,113.3,99.3,113.3,99.3,113.2
		L99.3,113.2z"/>
	<path fill="#D1D3D3" d="M134.9,82c0.3,1.2-0.6,2.4-1.9,2.4c-2.7-0.1-5.9,0.2-8.7,0.6l0-0.3c0,0,9.2-1.4,6.5-8l0.2-0.4
		C133.3,77.6,134.4,80.1,134.9,82z"/>
	
		<path fill="none" stroke="#000000" stroke-width="1.8018" stroke-linecap="round" stroke-linejoin="round" stroke-miterlimit="10" d="
		M124.3,84.9c-2.3,0.3-4.3,0.6-5.6,0.8c-0.9,0.1-1.6-0.6-1.5-1.5c0.3-3,1.8-9.1,8.8-9.4c2.1-0.1,3.8,0.4,5,1.3
		c2.2,1.5,3.3,3.9,3.9,5.8c0.3,1.2-0.6,2.4-1.9,2.4C130.3,84.2,127.1,84.5,124.3,84.9z"/>
	<path fill="#D1D3D3" d="M77.7,78.9c1.8,0.4,9.2,1.6,9.2-6.2c1.2,1.2,1.7,2.8,1.9,4.4c-0.4,2-1.2,3.8-1.8,4.5
		C84.1,80.3,80.6,79.5,77.7,78.9L77.7,78.9z"/>
	
		<path fill="none" stroke="#000000" stroke-width="1.8018" stroke-linecap="round" stroke-linejoin="round" stroke-miterlimit="10" d="
		M77.7,78.9c-1.2-0.2-2.2-0.4-3.1-0.6c-1.1-0.2-1.7-1.3-1.3-2.3c1.1-2.6,3.9-6.7,9.7-5.4c1.7,0.4,2.9,1.1,3.8,2
		c1.2,1.2,1.7,2.8,1.9,4.4c-0.4,2-1.2,3.8-1.8,4.5C84.1,80.3,80.6,79.5,77.7,78.9z"/>
	<path d="M81.3,76.6c-1.6-0.4-3.3,0.5-3.8,2.2c-0.1,0.2,0,0.5,0.1,0.7c0.1,0.2,0.3,0.4,0.6,0.4c1.6,0.4,3,0.7,4.3,1.1
		c0.1,0,0.2,0,0.2,0c0.2,0,0.3,0,0.5-0.1c0.2-0.1,0.4-0.3,0.4-0.6C84,78.6,83,77,81.3,76.6z"/>
	<path d="M144.8,496c-0.2,0-0.4-0.1-0.6-0.2c-4.7-4.2-12.6-3.4-12.7-3.4c-0.5,0.1-0.9-0.3-1-0.8c-0.1-0.5,0.3-0.9,0.8-1
		c0.4,0,8.8-0.9,14.1,3.8c0.4,0.3,0.4,0.9,0.1,1.3C145.3,495.8,145.1,496,144.8,496z"/>
	<path d="M227.7,513.4c-0.3,0-0.7-0.2-0.8-0.5c-2.7-6.3-13.2-7-13.3-7c-0.5,0-0.9-0.5-0.8-0.9c0-0.5,0.5-0.9,0.9-0.8
		c0.5,0,11.7,0.7,14.8,8.1c0.2,0.5,0,1-0.5,1.2C228,513.3,227.8,513.4,227.7,513.4z"/>
	<path d="M499.2,496.9c-0.2,0-0.5-0.1-0.6-0.3c-4.2-4.2-13.2-3.8-13.3-3.8c-0.5,0-0.9-0.4-0.9-0.9c0-0.5,0.4-0.9,0.9-0.9
		c0.4,0,9.9-0.4,14.6,4.3c0.4,0.4,0.4,0.9,0,1.3C499.7,496.8,499.4,496.9,499.2,496.9z"/>
	<path d="M33.7,121.8c-0.3,0-0.6-0.1-0.7-0.4c-0.3-0.4-0.2-1,0.2-1.3c0,0,2-1.4,5-4.1c0.4-0.3,0.9-0.3,1.3,0.1
		c0.3,0.4,0.3,0.9-0.1,1.3c-3.2,2.8-5.1,4.2-5.2,4.3C34.1,121.7,33.9,121.8,33.7,121.8z"/>
	<path d="M38.5,103c-0.3,0-0.7-0.2-0.8-0.5c-0.2-0.4,0-1,0.4-1.2c1.2-0.6,4.7-2.3,5.8-3.3c0.4-0.3,0.9-0.3,1.3,0.1
		c0.3,0.4,0.3,0.9-0.1,1.3c-1.6,1.4-6.1,3.5-6.3,3.6C38.7,103,38.6,103,38.5,103z"/>
	<path d="M45.5,91.7c-0.3,0-0.6-0.1-0.8-0.4c-0.3-0.4-0.1-1,0.3-1.2c0.8-0.5,3-2,3.9-3.2c0.3-0.4,0.9-0.5,1.3-0.2
		c0.4,0.3,0.5,0.9,0.2,1.3c-1.2,1.7-4.3,3.6-4.4,3.7C45.8,91.7,45.7,91.7,45.5,91.7z"/>
	<path d="M223.4,21.2c0,0-0.1-0.1-0.2-0.2c-0.1-0.1-0.3-0.3-0.6-0.4c-0.6-0.3-1.6-0.3-2.9,0c-1.2,0.3-2.7,1-4.2,2
		c-1.5,1-3.2,2.2-5,3.5c-3.6,2.7-7.5,6.3-11.4,10.3c-2,2-4,4.2-5.8,6.4c-0.4,0.6-0.9,1.1-1.3,1.7c-0.2,0.3-0.4,0.6-0.5,0.8
		c-0.1,0.1-0.1,0.2-0.1,0.3c0,0,0,0.1-0.1,0.2l-0.1,0.3c-0.1,0.4-0.2,0.7-0.3,1.1c-0.1,0.3-0.2,0.7-0.2,1l-0.2,1l-0.1,1.1
		c-0.3,2.8,0,5.7,0.8,8.4c0.3,1.4,0.9,2.7,1.3,4c0.3,0.6,0.6,1.3,0.9,1.9c0.3,0.6,0.6,1.3,0.9,1.9c1.3,2.4,2.8,4.7,4.3,6.8
		c0.8,1,1.6,2,2.3,3c0.8,0.9,1.6,1.8,2.3,2.6c1.5,1.7,3,3.2,4.2,4.5c0.6,0.7,1.2,1.3,1.8,1.8c0.6,0.5,1.1,1,1.6,1.5
		c1,0.9,1.7,1.6,2.2,2.1c0.5,0.5,0.8,0.8,0.8,0.8l0,0c0,0,0,0.1,0,0.1c0,0-0.1,0-0.1,0c0,0-1.2-1-3.2-2.7c-0.5-0.4-1.1-0.9-1.7-1.4
		c-0.6-0.5-1.2-1.1-1.9-1.7c-1.4-1.3-2.9-2.6-4.5-4.3c-0.8-0.8-1.6-1.7-2.4-2.6c-0.8-0.9-1.6-1.9-2.4-2.9c-1.6-2.1-3.2-4.3-4.6-6.8
		c-0.4-0.6-0.7-1.3-1-1.9c-0.3-0.7-0.6-1.3-1-2c-0.5-1.4-1.1-2.8-1.5-4.2c-0.8-2.9-1.2-6-0.9-9c0.1-1.5,0.5-3,0.9-4.5
		c0.2-0.7,0.6-1.5,1-2.1c0.4-0.6,0.9-1.2,1.4-1.8c1.9-2.3,4-4.4,6-6.4c4.1-4,8.2-7.4,11.9-10.1c3.7-2.6,7.1-4.5,9.8-5.1
		c1.3-0.3,2.4-0.1,3.1,0.2c0.7,0.4,0.8,0.7,0.9,0.7c0,0,0,0.1,0,0.1C223.5,21.3,223.5,21.3,223.4,21.2z"/>
	<path d="M125.9,505.6c0,0-0.6,0.4-1.4,1.2c-0.8,0.7-1.7,1.9-2.3,3.1c-0.2,0.3-0.3,0.6-0.4,0.9c-0.1,0.3-0.2,0.6-0.3,0.9
		c-0.1,0.3-0.1,0.6-0.2,0.9c-0.1,0.3-0.1,0.5-0.1,0.8c-0.1,0.5-0.4,0.9-0.4,1.2c0,0.3-0.3,0.4-0.3,0.4v0.1c0,0.8-0.3,1.4-1,1.4
		c-0.8,0-1.2-0.6-1.2-1.4c0-0.1,0.1-0.2,0.1-0.3c0,0,0.1-0.2,0.2-0.5c0.1-0.3,0.2-0.8,0.4-1.4c0.1-0.3,0.2-0.6,0.4-0.9
		c0.2-0.3,0.3-0.6,0.5-1c0.2-0.3,0.4-0.7,0.6-1c0.2-0.3,0.5-0.6,0.7-0.9c1-1.2,2.2-2.1,3.2-2.7C125.2,505.9,125.9,505.6,125.9,505.6
		z"/>
	<path d="M138.5,511c0,0-0.6,0.4-1.4,1.2c-0.8,0.7-1.7,1.9-2.3,3.1c-0.2,0.3-0.3,0.6-0.4,0.9c-0.1,0.3-0.2,0.6-0.3,0.9
		c-0.1,0.3-0.1,0.6-0.2,0.9c-0.1,0.3-0.1,0.5-0.1,0.8c-0.1,0.5,0.8,0.9,0.8,1.2c0,0.3,0.8,0.4,0.8,0.4v0.1c0,0.8-1.5,1.4-2.2,1.4
		c-0.8,0-1.8-0.6-1.8-1.4c0-0.1-0.2-0.2-0.2-0.3c0,0-0.1-0.2,0-0.5c0.1-0.3,0.1-0.8,0.3-1.4c0.1-0.3,0.2-0.6,0.3-0.9
		c0.2-0.3,0.3-0.6,0.5-1c0.2-0.3,0.4-0.7,0.6-1c0.2-0.3,0.4-0.6,0.7-0.9c1-1.2,2.2-2.1,3.2-2.7C137.8,511.3,138.5,511,138.5,511z"/>
	<path d="M207.9,524.6c0,0-0.6,0.4-1.4,1.2c-0.8,0.7-1.7,1.9-2.3,3.1c-0.2,0.3-0.3,0.6-0.4,0.9c-0.1,0.3-0.2,0.6-0.3,0.9
		c-0.1,0.3-0.1,0.6-0.2,0.9c-0.1,0.3-0.1,0.5-0.1,0.8c-0.1,0.5,2.1,0.9,2.1,1.2c0,0.3,2.2,0.4,2.2,0.4v0.1c0,0.8-2.8,1.4-3.5,1.4
		c-0.8,0-2.4-0.6-2.5-1.4c0-0.1-0.5-0.2-0.5-0.3c0,0-0.2-0.2-0.1-0.5c0.1-0.3,0-0.8,0.3-1.4c0.1-0.3,0.1-0.6,0.3-0.9
		c0.2-0.3,0.2-0.6,0.4-1c0.2-0.3,0.4-0.7,0.6-1c0.2-0.3,0.4-0.6,0.7-0.9c1-1.2,2.2-2.1,3.2-2.7C207.2,524.8,207.9,524.6,207.9,524.6
		z"/>
	<path d="M219.6,529.1c0,0-0.6,0.4-1.4,1.2c-0.8,0.7-1.7,1.9-2.3,3.1c-0.2,0.3-0.3,0.6-0.4,0.9c-0.1,0.3-0.2,0.6-0.3,0.9
		c-0.1,0.3-0.1,0.6-0.2,0.9c-0.1,0.3-0.1,0.5-0.1,0.8c-0.1,0.5-0.3,0.9-0.2,1.2c0,0.3-0.2,0.4-0.2,0.4v0.1c0,0.8-0.4,1.4-1.2,1.4
		c-0.8,0-1.3-0.6-1.3-1.4c0-0.1,0.1-0.2,0.1-0.3c0,0,0.1-0.2,0.1-0.5c0.1-0.3,0.2-0.8,0.4-1.4c0.1-0.3,0.2-0.6,0.4-0.9
		c0.2-0.3,0.3-0.6,0.5-1c0.2-0.3,0.4-0.7,0.6-1c0.2-0.3,0.5-0.6,0.7-0.9c1-1.2,2.2-2.1,3.2-2.7C218.9,529.3,219.6,529.1,219.6,529.1
		z"/>
	<path d="M365.5,493c0,0-0.6,0.4-1.4,1.2c-0.8,0.7-1.7,1.9-2.3,3.1c-0.2,0.3-0.3,0.6-0.4,0.9c-0.1,0.3-0.2,0.6-0.3,0.9
		c-0.1,0.3-0.1,0.6-0.2,0.9c-0.1,0.3-0.1,0.5-0.1,0.8c-0.1,0.5,0.3,0.9,0.3,1.2c0,0.3,0.3,0.4,0.3,0.4v0.1c0,0.8-0.9,1.4-1.7,1.4
		c-0.8,0-1.5-0.6-1.5-1.4c0-0.1-0.1-0.2,0-0.3c0,0,0-0.2,0.1-0.5c0.1-0.3,0.2-0.8,0.4-1.4c0.1-0.3,0.2-0.6,0.3-0.9
		c0.2-0.3,0.3-0.6,0.5-1c0.2-0.3,0.4-0.7,0.6-1c0.2-0.3,0.5-0.6,0.7-0.9c1-1.2,2.2-2.1,3.2-2.7C364.8,493.3,365.5,493,365.5,493z"/>
	<path d="M374.9,495.7c0,0-0.5,0.4-1,1.2c-0.6,0.7-1.2,1.8-1.6,3c-0.2,0.6-0.3,1.1-0.4,1.7c-0.1,0.3,0,0.5-0.1,0.8
		c0,0.2,0,0.5,0,0.7c0,0.4,0.1,0.8,0.1,1c0,0.2,0.1,0.4,0.1,0.4l0,0.1c0.1,0.6-0.3,1.3-1,1.4c-0.6,0.1-1.3-0.3-1.4-1
		c0-0.1,0-0.2,0-0.3c0,0,0-0.2,0-0.5c0-0.3,0-0.7,0.1-1.3c0-0.3,0.1-0.5,0.2-0.8c0.1-0.3,0.2-0.6,0.3-0.9c0.2-0.6,0.5-1.2,0.9-1.8
		c0.7-1.2,1.6-2.1,2.4-2.7C374.4,496,374.9,495.7,374.9,495.7z"/>
	<path d="M481.7,506.5c0,0-0.6,0.4-1.4,1.2c-0.8,0.7-1.7,1.9-2.3,3.1c-0.2,0.3-0.3,0.6-0.4,0.9c-0.1,0.3-0.2,0.6-0.3,0.9
		c-0.1,0.3-0.1,0.6-0.2,0.9c-0.1,0.3-0.1,0.5-0.1,0.8c-0.1,0.5-2.3,0.9-2.3,1.2c0,0.3-2.3,0.4-2.3,0.4v0.1c0,0.8,1.7,1.4,0.9,1.4
		c-0.8,0-0.2-0.6-0.2-1.4c0-0.1,0.6-0.2,0.6-0.3c0,0,0.3-0.2,0.4-0.5c0.1-0.3,0.3-0.8,0.5-1.4c0.1-0.3,0.3-0.6,0.4-0.9
		c0.2-0.3,0.3-0.6,0.5-1c0.2-0.3,0.4-0.7,0.6-1c0.2-0.3,0.5-0.6,0.7-0.9c1-1.2,2.2-2.1,3.2-2.7C481,506.8,481.7,506.5,481.7,506.5z"
		/>
	<path d="M493.4,509.2c0,0-0.6,0.4-1.4,1.2c-0.8,0.7-1.7,1.9-2.3,3.1c-0.2,0.3-0.3,0.6-0.4,0.9c-0.1,0.3-0.2,0.6-0.3,0.9
		c-0.1,0.3-0.1,0.6-0.2,0.9c-0.1,0.3-0.1,0.5-0.1,0.8c-0.1,0.5-1.2,0.9-1.2,1.2c0,0.3-1.1,0.4-1.1,0.4v0.1c0,0.8,0.5,1.4-0.2,1.4
		c-0.8,0-0.8-0.6-0.8-1.4c0-0.1,0.3-0.2,0.3-0.3c0,0,0.2-0.2,0.3-0.5c0.1-0.3,0.3-0.8,0.5-1.4c0.1-0.3,0.2-0.6,0.4-0.9
		c0.2-0.3,0.3-0.6,0.5-1c0.2-0.3,0.4-0.7,0.6-1c0.2-0.3,0.5-0.6,0.7-0.9c1-1.2,2.2-2.1,3.2-2.7C492.7,509.5,493.4,509.2,493.4,509.2
		z"/>
	<path d="M131.2,84.9l-0.1-1.5l-1.4,0.1c-0.5-1.4-1.9-2.2-3.4-2.1c-1.5,0.1-2.6,1.2-2.9,2.6l-1.4,0.1l0.1,1.5l1.6-0.1
		c0.2,0.1,0.3,0.2,0.5,0.2c0,0,0.1,0,0.1,0c1.7-0.2,3.3-0.4,4.7-0.5c0.2,0,0.4-0.1,0.5-0.2L131.2,84.9z"/>
</g>
</svg>
